<svg width="24" height="24" fill="none" xmlns="http://www.w3.org/2000/svg"><path d="M23.934 7.04c-.056-1.273-.262-2.148-.558-2.905A5.841 5.841 0 0021.99 2.01a5.909 5.909 0 00-2.124-1.38c-.764-.294-1.636-.5-2.912-.556C15.67.015 15.261 0 12.003 0c-3.26 0-3.667.014-4.947.07-1.275.056-2.152.262-2.911.557A5.857 5.857 0 002.016 2.01 5.893 5.893 0 00.633 4.13C.338 4.892.13 5.762.075 7.034.015 8.316 0 8.723 0 11.974c0 3.25.014 3.657.07 4.934.057 1.272.263 2.146.558 2.904a5.903 5.903 0 001.388 2.124c.6.608 1.327 1.08 2.124 1.38.764.294 1.636.5 2.911.556 1.28.056 1.688.07 4.947.07 3.258 0 3.666-.014 4.946-.07 1.275-.056 2.152-.262 2.912-.556a6.132 6.132 0 003.511-3.504c.295-.762.502-1.632.558-2.904.056-1.277.07-1.684.07-4.935 0-3.25-.004-3.657-.06-4.934zm-2.16 9.774c-.053 1.17-.25 1.801-.414 2.222a3.977 3.977 0 01-2.278 2.273c-.422.164-1.06.36-2.227.412-1.266.056-1.646.07-4.848.07s-3.587-.014-4.848-.07c-1.172-.052-1.805-.248-2.227-.412a3.695 3.695 0 01-1.378-.893 3.722 3.722 0 01-.896-1.375c-.164-.421-.36-1.057-.412-2.222-.057-1.263-.07-1.642-.07-4.836 0-3.195.013-3.578.07-4.836.051-1.17.248-1.801.412-2.222.193-.52.497-.991.9-1.375a3.727 3.727 0 011.379-.893c.422-.164 1.06-.36 2.227-.412 1.266-.056 1.646-.07 4.848-.07 3.207 0 3.586.014 4.848.07 1.172.052 1.805.248 2.227.412.52.191.994.495 1.378.893.398.388.703.856.895 1.375.165.421.361 1.057.413 2.222.056 1.263.07 1.641.07 4.836 0 3.194-.014 3.568-.07 4.831z" fill="#00071C"/><path d="M12.002 5.823c-3.403 0-6.165 2.755-6.165 6.15 0 3.396 2.762 6.151 6.165 6.151 3.404 0 6.166-2.754 6.166-6.15 0-3.396-2.762-6.15-6.166-6.15zm0 10.14c-2.208 0-3.999-1.786-3.999-3.99a3.995 3.995 0 014-3.989c2.208 0 3.999 1.787 3.999 3.99a3.995 3.995 0 01-4 3.99zM19.851 5.58c0 .792-.645 1.435-1.44 1.435-.794 0-1.439-.643-1.439-1.435 0-.793.645-1.436 1.44-1.436.794 0 1.439.643 1.439 1.436z" fill="#00071C"/></svg>
