<svg width="30" height="24" fill="none" xmlns="http://www.w3.org/2000/svg"><path d="M30 2.834c-1.116.481-2.304.8-3.544.954A6.028 6.028 0 0029.162.45a12.428 12.428 0 01-3.9 1.463A6.216 6.216 0 0020.769 0c-3.405 0-6.146 2.715-6.146 6.043 0 .478.041.939.143 1.377A17.514 17.514 0 012.089 1.101a6 6 0 00-.842 3.054c0 2.092 1.097 3.947 2.732 5.02A6.158 6.158 0 011.2 8.431v.067c0 2.935 2.132 5.374 4.928 5.935a6.24 6.24 0 01-1.613.2c-.394 0-.791-.023-1.164-.104a6.196 6.196 0 005.747 4.209 12.5 12.5 0 01-7.626 2.576c-.504 0-.988-.022-1.472-.083 2.724 1.726 5.953 2.711 9.435 2.711 11.318 0 17.505-9.208 17.505-17.19 0-.267-.01-.525-.023-.781A12.153 12.153 0 0030 2.834z" fill="#00071C"/></svg>
